# Blender v2.79 (sub 0) OBJ File: 'compartment.blend'
# www.blender.org
mtllib compartment.mtl
o Cube_Cube.001
v -1.000000 -1.000000 1.000000
v -1.000000 1.344954 1.000000
v -1.000000 -1.000000 -1.000000
v -1.000000 1.820127 -1.000000
v 1.000000 -1.000000 1.000000
v 1.000000 1.344954 1.000000
v 1.000000 -1.000000 -1.000000
v 1.000000 1.820127 -1.000000
v -1.000000 -1.000000 -3.112692
v -1.000000 1.820127 -3.112692
v 1.000000 -1.000000 -3.112692
v 1.000000 1.820127 -3.112692
vn -1.0000 0.0000 0.0000
vn 0.0000 -1.0000 0.0000
vn 1.0000 0.0000 0.0000
vn 0.0000 0.0000 1.0000
vn 0.0000 0.9729 0.2312
vn 0.0000 0.0000 -1.0000
vn 0.0000 1.0000 0.0000
usemtl None
s off
f 2//1 3//1 1//1
f 3//2 11//2 7//2
f 7//3 6//3 5//3
f 6//4 1//4 5//4
f 7//2 1//2 3//2
f 4//5 6//5 8//5
f 10//6 11//6 9//6
f 8//7 10//7 4//7
f 4//1 9//1 3//1
f 7//3 12//3 8//3
f 2//1 4//1 3//1
f 3//2 9//2 11//2
f 7//3 8//3 6//3
f 6//4 2//4 1//4
f 7//2 5//2 1//2
f 4//5 2//5 6//5
f 10//6 12//6 11//6
f 8//7 12//7 10//7
f 4//1 10//1 9//1
f 7//3 11//3 12//3
o Cylinder
v -1.211627 -1.049607 -0.446234
v 1.211627 -1.049607 -0.446234
v -1.211627 -1.146893 -0.436652
v 1.211627 -1.146893 -0.436652
v -1.211627 -1.240440 -0.408275
v 1.211627 -1.240440 -0.408275
v -1.211627 -1.326653 -0.362193
v 1.211627 -1.326653 -0.362193
v -1.211627 -1.402220 -0.300177
v 1.211627 -1.402220 -0.300177
v -1.211627 -1.464236 -0.224610
v 1.211627 -1.464236 -0.224610
v -1.211627 -1.510318 -0.138396
v 1.211627 -1.510318 -0.138396
v -1.211627 -1.538695 -0.044849
v 1.211627 -1.538696 -0.044849
v -1.211627 -1.548277 0.052437
v 1.211627 -1.548277 0.052437
v -1.211627 -1.538695 0.149723
v 1.211627 -1.538696 0.149723
v -1.211627 -1.510318 0.243270
v 1.211627 -1.510319 0.243270
v -1.211627 -1.464236 0.329483
v 1.211627 -1.464236 0.329483
v -1.211627 -1.402220 0.405050
v 1.211627 -1.402220 0.405050
v -1.211627 -1.326653 0.467066
v 1.211627 -1.326653 0.467066
v -1.211627 -1.240440 0.513148
v 1.211627 -1.240440 0.513148
v -1.211627 -1.146892 0.541526
v 1.211627 -1.146893 0.541526
v -1.211627 -1.049607 0.551107
v 1.211627 -1.049607 0.551107
v -1.211627 -0.952321 0.541526
v 1.211627 -0.952321 0.541526
v -1.211627 -0.858774 0.513148
v 1.211627 -0.858774 0.513148
v -1.211627 -0.772560 0.467066
v 1.211627 -0.772560 0.467066
v -1.211627 -0.696993 0.405050
v 1.211627 -0.696993 0.405050
v -1.211627 -0.634977 0.329483
v 1.211627 -0.634977 0.329483
v -1.211627 -0.588895 0.243269
v 1.211627 -0.588895 0.243269
v -1.211627 -0.560518 0.149722
v 1.211627 -0.560518 0.149722
v -1.211627 -0.550936 0.052436
v 1.211627 -0.550936 0.052436
v -1.211627 -0.560518 -0.044849
v 1.211627 -0.560518 -0.044849
v -1.211627 -0.588895 -0.138397
v 1.211627 -0.588896 -0.138397
v -1.211627 -0.634978 -0.224610
v 1.211627 -0.634978 -0.224610
v -1.211627 -0.696994 -0.300177
v 1.211627 -0.696994 -0.300177
v -1.211627 -0.772561 -0.362193
v 1.211627 -0.772561 -0.362193
v -1.211627 -0.858774 -0.408275
v 1.211627 -0.858775 -0.408275
v -1.211627 -0.952322 -0.436652
v 1.211627 -0.952322 -0.436652
v 1.007568 -1.049607 -0.446234
v 1.007568 -1.146893 -0.436652
v 1.007568 -1.240440 -0.408275
v 1.007568 -1.326653 -0.362193
v 1.007568 -1.402220 -0.300177
v 1.007568 -1.464236 -0.224610
v 1.007568 -1.510318 -0.138396
v 1.007568 -1.538696 -0.044849
v 1.007568 -1.548277 0.052437
v 1.007568 -1.538696 0.149723
v 1.007568 -1.510318 0.243270
v 1.007568 -1.464236 0.329483
v 1.007568 -1.402220 0.405050
v 1.007568 -1.326653 0.467066
v 1.007568 -1.240440 0.513148
v 1.007568 -1.146893 0.541526
v 1.007568 -1.049607 0.551107
v 1.007568 -0.952321 0.541526
v 1.007568 -0.858774 0.513148
v 1.007568 -0.772560 0.467066
v 1.007568 -0.696993 0.405050
v 1.007568 -0.634977 0.329483
v 1.007568 -0.588895 0.243269
v 1.007568 -0.560518 0.149722
v 1.007568 -0.550936 0.052436
v 1.007568 -0.560518 -0.044849
v 1.007568 -0.588896 -0.138397
v 1.007568 -0.634978 -0.224610
v 1.007568 -0.696994 -0.300177
v 1.007568 -0.772561 -0.362193
v 1.007568 -0.858775 -0.408275
v 1.007568 -0.952322 -0.436652
v -1.003401 -1.143162 -0.416906
v -1.003401 -1.236709 -0.388529
v -1.003401 -1.322923 -0.342447
v -1.003401 -1.398490 -0.280431
v -1.003401 -1.460506 -0.204864
v -1.003401 -1.506588 -0.118650
v -1.003401 -1.534965 -0.025103
v -1.003401 -1.544547 0.072183
v -1.003401 -1.534965 0.169468
v -1.003401 -1.506588 0.263016
v -1.003401 -1.460506 0.349229
v -1.003401 -1.398490 0.424796
v -1.003401 -1.322923 0.486812
v -1.003401 -1.236709 0.532894
v -1.003401 -1.143162 0.561271
v -1.003401 -1.045876 0.570853
v -1.003401 -0.948591 0.561271
v -1.003401 -0.855043 0.532894
v -1.003401 -0.768830 0.486812
v -1.003401 -0.693263 0.424796
v -1.003401 -0.631247 0.349229
v -1.003401 -0.585165 0.263015
v -1.003401 -0.556788 0.169468
v -1.003401 -0.547206 0.072182
v -1.003401 -0.556788 -0.025104
v -1.003401 -0.585165 -0.118651
v -1.003401 -0.631247 -0.204864
v -1.003401 -0.693264 -0.280431
v -1.003401 -0.768831 -0.342447
v -1.003401 -0.855044 -0.388529
v -1.003401 -0.948591 -0.416906
v -1.003401 -1.045877 -0.426488
vn 0.0000 -0.0980 -0.9952
vn 0.0000 -0.2903 -0.9569
vn 0.0000 -0.4714 -0.8819
vn -0.0000 -0.6344 -0.7730
vn 0.0000 -0.7730 -0.6344
vn -0.0000 -0.8819 -0.4714
vn 0.0000 -0.9569 -0.2903
vn 0.0000 -0.9952 -0.0980
vn 0.0000 -0.9952 0.0980
vn -0.0000 -0.9569 0.2903
vn -0.0000 -0.8819 0.4714
vn -0.0000 -0.7730 0.6344
vn 0.0000 -0.6344 0.7730
vn 0.0000 -0.4714 0.8819
vn 0.0000 -0.2903 0.9569
vn 0.0000 -0.0980 0.9952
vn 0.0000 0.0980 0.9952
vn 0.0000 0.2903 0.9569
vn 0.0000 0.4714 0.8819
vn 0.0000 0.6344 0.7730
vn 0.0000 0.7730 0.6344
vn 0.0000 0.8819 0.4714
vn 0.0000 0.9569 0.2903
vn 0.0000 0.9952 0.0980
vn 0.0000 0.9952 -0.0980
vn 0.0000 0.9569 -0.2903
vn 0.0000 0.8819 -0.4714
vn 0.0000 0.7730 -0.6344
vn 0.0000 0.6344 -0.7730
vn 0.0000 0.4714 -0.8819
vn 1.0000 -0.0000 0.0000
vn 0.0000 0.2903 -0.9569
vn 0.0000 0.0980 -0.9952
vn -1.0000 0.0000 0.0000
vn 0.0957 -0.0976 -0.9906
vn 0.0955 -0.2890 -0.9526
vn 0.0917 -0.4694 -0.8782
vn 0.0844 -0.6321 -0.7703
vn 0.0738 -0.7709 -0.6327
vn 0.0604 -0.8803 -0.4705
vn 0.0446 -0.9560 -0.2900
vn 0.0271 -0.9948 -0.0980
vn 0.0085 -0.9951 0.0980
vn -0.0104 -0.9569 0.2903
vn -0.0289 -0.8816 0.4712
vn -0.0463 -0.7722 0.6337
vn -0.0618 -0.6332 0.7715
vn -0.0750 -0.4701 0.8794
vn -0.0852 -0.2892 0.9535
vn -0.0922 -0.0976 0.9909
vn -0.0957 0.0976 0.9906
vn -0.0955 0.2890 0.9526
vn -0.0917 0.4694 0.8782
vn -0.0844 0.6321 0.7703
vn -0.0738 0.7709 0.6327
vn -0.0604 0.8803 0.4705
vn -0.0446 0.9560 0.2900
vn -0.0271 0.9948 0.0980
vn -0.0085 0.9951 -0.0980
vn 0.0104 0.9569 -0.2903
vn 0.0289 0.8816 -0.4712
vn 0.0463 0.7722 -0.6337
vn 0.0618 0.6332 -0.7715
vn 0.0750 0.4701 -0.8794
vn 0.0852 0.2892 -0.9535
vn 0.0922 0.0976 -0.9909
usemtl None
s off
f 14//8 78//8 77//8
f 16//9 79//9 78//9
f 18//10 80//10 79//10
f 20//11 81//11 80//11
f 22//12 82//12 81//12
f 24//13 83//13 82//13
f 26//14 84//14 83//14
f 28//15 85//15 84//15
f 30//16 86//16 85//16
f 32//17 87//17 86//17
f 34//18 88//18 87//18
f 36//19 89//19 88//19
f 38//20 90//20 89//20
f 40//21 91//21 90//21
f 42//22 92//22 91//22
f 44//23 93//23 92//23
f 46//24 94//24 93//24
f 48//25 95//25 94//25
f 50//26 96//26 95//26
f 52//27 97//27 96//27
f 54//28 98//28 97//28
f 56//29 99//29 98//29
f 58//30 100//30 99//30
f 60//31 101//31 100//31
f 62//32 102//32 101//32
f 64//33 103//33 102//33
f 66//34 104//34 103//34
f 68//35 105//35 104//35
f 70//36 106//36 105//36
f 72//37 107//37 106//37
f 66//38 50//38 34//38
f 74//39 108//39 107//39
f 76//40 77//40 108//40
f 43//41 59//41 75//41
f 13//42 109//42 15//42
f 109//43 17//43 15//43
f 110//44 19//44 17//44
f 111//45 21//45 19//45
f 112//46 23//46 21//46
f 113//47 25//47 23//47
f 114//48 27//48 25//48
f 115//49 29//49 27//49
f 116//50 31//50 29//50
f 117//51 33//51 31//51
f 118//52 35//52 33//52
f 119//53 37//53 35//53
f 120//54 39//54 37//54
f 121//55 41//55 39//55
f 122//56 43//56 41//56
f 123//57 45//57 43//57
f 124//58 47//58 45//58
f 47//59 126//59 49//59
f 49//60 127//60 51//60
f 51//61 128//61 53//61
f 53//62 129//62 55//62
f 55//63 130//63 57//63
f 57//64 131//64 59//64
f 59//65 132//65 61//65
f 61//66 133//66 63//66
f 63//67 134//67 65//67
f 65//68 135//68 67//68
f 67//69 136//69 69//69
f 69//70 137//70 71//70
f 71//71 138//71 73//71
f 73//72 139//72 75//72
f 75//73 140//73 13//73
f 14//8 16//8 78//8
f 16//9 18//9 79//9
f 18//10 20//10 80//10
f 20//11 22//11 81//11
f 22//12 24//12 82//12
f 24//13 26//13 83//13
f 26//14 28//14 84//14
f 28//15 30//15 85//15
f 30//16 32//16 86//16
f 32//17 34//17 87//17
f 34//18 36//18 88//18
f 36//19 38//19 89//19
f 38//20 40//20 90//20
f 40//21 42//21 91//21
f 42//22 44//22 92//22
f 44//23 46//23 93//23
f 46//24 48//24 94//24
f 48//25 50//25 95//25
f 50//26 52//26 96//26
f 52//27 54//27 97//27
f 54//28 56//28 98//28
f 56//29 58//29 99//29
f 58//30 60//30 100//30
f 60//31 62//31 101//31
f 62//32 64//32 102//32
f 64//33 66//33 103//33
f 66//34 68//34 104//34
f 68//35 70//35 105//35
f 70//36 72//36 106//36
f 72//37 74//37 107//37
f 18//38 16//38 14//38
f 14//38 76//38 18//38
f 76//38 74//38 18//38
f 74//38 72//38 70//38
f 70//38 68//38 66//38
f 66//38 64//38 62//38
f 62//38 60//38 58//38
f 58//38 56//38 54//38
f 54//38 52//38 50//38
f 50//38 48//38 46//38
f 46//38 44//38 42//38
f 42//38 40//38 38//38
f 38//38 36//38 34//38
f 34//38 32//38 30//38
f 30//38 28//38 26//38
f 26//38 24//38 22//38
f 22//38 20//38 18//38
f 74//38 70//38 18//38
f 70//38 66//38 18//38
f 66//38 62//38 50//38
f 62//38 58//38 50//38
f 58//38 54//38 50//38
f 50//38 46//38 34//38
f 46//38 42//38 34//38
f 42//38 38//38 34//38
f 34//38 30//38 18//38
f 30//38 26//38 18//38
f 26//38 22//38 18//38
f 18//38 66//38 34//38
f 74//39 76//39 108//39
f 76//40 14//40 77//40
f 75//41 13//41 15//41
f 15//41 17//41 19//41
f 19//41 21//41 27//41
f 21//41 23//41 27//41
f 23//41 25//41 27//41
f 27//41 29//41 35//41
f 29//41 31//41 35//41
f 31//41 33//41 35//41
f 35//41 37//41 43//41
f 37//41 39//41 43//41
f 39//41 41//41 43//41
f 43//41 45//41 47//41
f 47//41 49//41 51//41
f 51//41 53//41 59//41
f 53//41 55//41 59//41
f 55//41 57//41 59//41
f 59//41 61//41 63//41
f 63//41 65//41 67//41
f 67//41 69//41 75//41
f 69//41 71//41 75//41
f 71//41 73//41 75//41
f 75//41 15//41 19//41
f 43//41 47//41 51//41
f 59//41 63//41 75//41
f 63//41 67//41 75//41
f 75//41 19//41 27//41
f 27//41 35//41 43//41
f 43//41 51//41 59//41
f 75//41 27//41 43//41
f 13//42 140//42 109//42
f 109//43 110//43 17//43
f 110//44 111//44 19//44
f 111//45 112//45 21//45
f 112//46 113//46 23//46
f 113//47 114//47 25//47
f 114//48 115//48 27//48
f 115//49 116//49 29//49
f 116//50 117//50 31//50
f 117//51 118//51 33//51
f 118//52 119//52 35//52
f 119//53 120//53 37//53
f 120//54 121//54 39//54
f 121//55 122//55 41//55
f 122//56 123//56 43//56
f 123//57 124//57 45//57
f 124//58 125//58 47//58
f 47//59 125//59 126//59
f 49//60 126//60 127//60
f 51//61 127//61 128//61
f 53//62 128//62 129//62
f 55//63 129//63 130//63
f 57//64 130//64 131//64
f 59//65 131//65 132//65
f 61//66 132//66 133//66
f 63//67 133//67 134//67
f 65//68 134//68 135//68
f 67//69 135//69 136//69
f 69//70 136//70 137//70
f 71//71 137//71 138//71
f 73//72 138//72 139//72
f 75//73 139//73 140//73
o Cylinder.001
v -1.211627 -1.049607 -2.861629
v 1.211627 -1.049607 -2.861629
v -1.211627 -1.146893 -2.852047
v 1.211627 -1.146893 -2.852047
v -1.211627 -1.240440 -2.823670
v 1.211627 -1.240440 -2.823670
v -1.211627 -1.326653 -2.777588
v 1.211627 -1.326653 -2.777588
v -1.211627 -1.402220 -2.715572
v 1.211627 -1.402220 -2.715572
v -1.211627 -1.464236 -2.640005
v 1.211627 -1.464236 -2.640005
v -1.211627 -1.510318 -2.553792
v 1.211627 -1.510318 -2.553792
v -1.211627 -1.538695 -2.460244
v 1.211627 -1.538696 -2.460244
v -1.211627 -1.548277 -2.362958
v 1.211627 -1.548277 -2.362958
v -1.211627 -1.538695 -2.265673
v 1.211627 -1.538696 -2.265673
v -1.211627 -1.510318 -2.172126
v 1.211627 -1.510319 -2.172126
v -1.211627 -1.464236 -2.085912
v 1.211627 -1.464236 -2.085912
v -1.211627 -1.402220 -2.010345
v 1.211627 -1.402220 -2.010345
v -1.211627 -1.326653 -1.948329
v 1.211627 -1.326653 -1.948329
v -1.211627 -1.240440 -1.902247
v 1.211627 -1.240440 -1.902247
v -1.211627 -1.146892 -1.873870
v 1.211627 -1.146893 -1.873870
v -1.211627 -1.049607 -1.864288
v 1.211627 -1.049607 -1.864288
v -1.211627 -0.952321 -1.873870
v 1.211627 -0.952321 -1.873870
v -1.211627 -0.858774 -1.902247
v 1.211627 -0.858774 -1.902247
v -1.211627 -0.772560 -1.948329
v 1.211627 -0.772560 -1.948329
v -1.211627 -0.696993 -2.010345
v 1.211627 -0.696993 -2.010345
v -1.211627 -0.634977 -2.085912
v 1.211627 -0.634977 -2.085912
v -1.211627 -0.588895 -2.172126
v 1.211627 -0.588895 -2.172126
v -1.211627 -0.560518 -2.265673
v 1.211627 -0.560518 -2.265673
v -1.211627 -0.550936 -2.362959
v 1.211627 -0.550936 -2.362959
v -1.211627 -0.560518 -2.460245
v 1.211627 -0.560518 -2.460245
v -1.211627 -0.588895 -2.553792
v 1.211627 -0.588896 -2.553792
v -1.211627 -0.634978 -2.640006
v 1.211627 -0.634978 -2.640006
v -1.211627 -0.696994 -2.715572
v 1.211627 -0.696994 -2.715572
v -1.211627 -0.772561 -2.777588
v 1.211627 -0.772561 -2.777588
v -1.211627 -0.858774 -2.823670
v 1.211627 -0.858775 -2.823670
v -1.211627 -0.952322 -2.852047
v 1.211627 -0.952322 -2.852047
v 1.007568 -1.049607 -2.861629
v 1.007568 -1.146893 -2.852047
v 1.007568 -1.240440 -2.823670
v 1.007568 -1.326653 -2.777588
v 1.007568 -1.402220 -2.715572
v 1.007568 -1.464236 -2.640005
v 1.007568 -1.510318 -2.553792
v 1.007568 -1.538696 -2.460244
v 1.007568 -1.548277 -2.362958
v 1.007568 -1.538696 -2.265673
v 1.007568 -1.510318 -2.172126
v 1.007568 -1.464236 -2.085912
v 1.007568 -1.402220 -2.010345
v 1.007568 -1.326653 -1.948329
v 1.007568 -1.240440 -1.902247
v 1.007568 -1.146893 -1.873870
v 1.007568 -1.049607 -1.864288
v 1.007568 -0.952321 -1.873870
v 1.007568 -0.858774 -1.902247
v 1.007568 -0.772560 -1.948329
v 1.007568 -0.696993 -2.010345
v 1.007568 -0.634977 -2.085912
v 1.007568 -0.588895 -2.172126
v 1.007568 -0.560518 -2.265673
v 1.007568 -0.550936 -2.362959
v 1.007568 -0.560518 -2.460245
v 1.007568 -0.588896 -2.553792
v 1.007568 -0.634978 -2.640006
v 1.007568 -0.696994 -2.715572
v 1.007568 -0.772561 -2.777588
v 1.007568 -0.858775 -2.823670
v 1.007568 -0.952322 -2.852047
v -1.003401 -1.143162 -2.832301
v -1.003401 -1.236709 -2.803924
v -1.003401 -1.322923 -2.757842
v -1.003401 -1.398490 -2.695826
v -1.003401 -1.460506 -2.620259
v -1.003401 -1.506588 -2.534045
v -1.003401 -1.534965 -2.440498
v -1.003401 -1.544547 -2.343213
v -1.003401 -1.534965 -2.245927
v -1.003401 -1.506588 -2.152380
v -1.003401 -1.460506 -2.066166
v -1.003401 -1.398490 -1.990599
v -1.003401 -1.322923 -1.928583
v -1.003401 -1.236709 -1.882501
v -1.003401 -1.143162 -1.854124
v -1.003401 -1.045876 -1.844542
v -1.003401 -0.948591 -1.854124
v -1.003401 -0.855043 -1.882501
v -1.003401 -0.768830 -1.928583
v -1.003401 -0.693263 -1.990599
v -1.003401 -0.631247 -2.066166
v -1.003401 -0.585165 -2.152380
v -1.003401 -0.556788 -2.245927
v -1.003401 -0.547206 -2.343213
v -1.003401 -0.556788 -2.440499
v -1.003401 -0.585165 -2.534046
v -1.003401 -0.631247 -2.620260
v -1.003401 -0.693264 -2.695826
v -1.003401 -0.768831 -2.757842
v -1.003401 -0.855044 -2.803924
v -1.003401 -0.948591 -2.832301
v -1.003401 -1.045877 -2.841883
vn 0.0000 -0.0980 -0.9952
vn 0.0000 -0.2903 -0.9569
vn 0.0000 -0.4714 -0.8819
vn 0.0000 -0.6344 -0.7730
vn 0.0000 -0.7730 -0.6344
vn -0.0000 -0.8819 -0.4714
vn 0.0000 -0.9569 -0.2903
vn 0.0000 -0.9952 -0.0980
vn 0.0000 -0.9952 0.0980
vn -0.0000 -0.9569 0.2903
vn -0.0000 -0.8819 0.4714
vn -0.0000 -0.7730 0.6344
vn 0.0000 -0.6344 0.7730
vn 0.0000 -0.4714 0.8819
vn 0.0000 -0.2903 0.9569
vn 0.0000 -0.0980 0.9952
vn 0.0000 0.0980 0.9952
vn 0.0000 0.2903 0.9569
vn 0.0000 0.4714 0.8819
vn 0.0000 0.6344 0.7730
vn 0.0000 0.7730 0.6344
vn 0.0000 0.8819 0.4714
vn 0.0000 0.9569 0.2903
vn 0.0000 0.9952 0.0980
vn 0.0000 0.9952 -0.0980
vn 0.0000 0.9569 -0.2903
vn 0.0000 0.8819 -0.4714
vn 0.0000 0.7730 -0.6344
vn 0.0000 0.6344 -0.7730
vn 0.0000 0.4714 -0.8819
vn 1.0000 0.0000 0.0000
vn 0.0000 0.2903 -0.9569
vn 0.0000 0.0980 -0.9952
vn -1.0000 0.0000 0.0000
vn 0.0957 -0.0976 -0.9906
vn 0.0955 -0.2890 -0.9526
vn 0.0917 -0.4694 -0.8782
vn 0.0844 -0.6321 -0.7703
vn 0.0738 -0.7709 -0.6327
vn 0.0604 -0.8803 -0.4705
vn 0.0446 -0.9560 -0.2900
vn 0.0271 -0.9948 -0.0980
vn 0.0085 -0.9951 0.0980
vn -0.0104 -0.9569 0.2903
vn -0.0289 -0.8816 0.4712
vn -0.0463 -0.7722 0.6337
vn -0.0618 -0.6332 0.7715
vn -0.0750 -0.4701 0.8794
vn -0.0852 -0.2892 0.9535
vn -0.0922 -0.0976 0.9909
vn -0.0957 0.0976 0.9906
vn -0.0955 0.2890 0.9526
vn -0.0917 0.4694 0.8782
vn -0.0844 0.6321 0.7703
vn -0.0738 0.7709 0.6327
vn -0.0604 0.8803 0.4705
vn -0.0446 0.9560 0.2900
vn -0.0271 0.9948 0.0980
vn -0.0085 0.9951 -0.0980
vn 0.0104 0.9569 -0.2903
vn 0.0289 0.8816 -0.4712
vn 0.0463 0.7722 -0.6337
vn 0.0618 0.6332 -0.7715
vn 0.0750 0.4701 -0.8794
vn 0.0852 0.2892 -0.9535
vn 0.0922 0.0976 -0.9909
usemtl None
s off
f 142//74 206//74 205//74
f 144//75 207//75 206//75
f 146//76 208//76 207//76
f 148//77 209//77 208//77
f 150//78 210//78 209//78
f 152//79 211//79 210//79
f 154//80 212//80 211//80
f 156//81 213//81 212//81
f 158//82 214//82 213//82
f 160//83 215//83 214//83
f 162//84 216//84 215//84
f 164//85 217//85 216//85
f 166//86 218//86 217//86
f 168//87 219//87 218//87
f 170//88 220//88 219//88
f 172//89 221//89 220//89
f 174//90 222//90 221//90
f 176//91 223//91 222//91
f 178//92 224//92 223//92
f 180//93 225//93 224//93
f 182//94 226//94 225//94
f 184//95 227//95 226//95
f 186//96 228//96 227//96
f 188//97 229//97 228//97
f 190//98 230//98 229//98
f 192//99 231//99 230//99
f 194//100 232//100 231//100
f 196//101 233//101 232//101
f 198//102 234//102 233//102
f 200//103 235//103 234//103
f 194//104 178//104 162//104
f 202//105 236//105 235//105
f 204//106 205//106 236//106
f 171//107 187//107 203//107
f 141//108 237//108 143//108
f 237//109 145//109 143//109
f 238//110 147//110 145//110
f 239//111 149//111 147//111
f 240//112 151//112 149//112
f 241//113 153//113 151//113
f 242//114 155//114 153//114
f 243//115 157//115 155//115
f 244//116 159//116 157//116
f 245//117 161//117 159//117
f 246//118 163//118 161//118
f 247//119 165//119 163//119
f 248//120 167//120 165//120
f 249//121 169//121 167//121
f 250//122 171//122 169//122
f 251//123 173//123 171//123
f 252//124 175//124 173//124
f 175//125 254//125 177//125
f 177//126 255//126 179//126
f 179//127 256//127 181//127
f 181//128 257//128 183//128
f 183//129 258//129 185//129
f 185//130 259//130 187//130
f 187//131 260//131 189//131
f 189//132 261//132 191//132
f 191//133 262//133 193//133
f 193//134 263//134 195//134
f 195//135 264//135 197//135
f 197//136 265//136 199//136
f 199//137 266//137 201//137
f 201//138 267//138 203//138
f 203//139 268//139 141//139
f 142//74 144//74 206//74
f 144//75 146//75 207//75
f 146//76 148//76 208//76
f 148//77 150//77 209//77
f 150//78 152//78 210//78
f 152//79 154//79 211//79
f 154//80 156//80 212//80
f 156//81 158//81 213//81
f 158//82 160//82 214//82
f 160//83 162//83 215//83
f 162//84 164//84 216//84
f 164//85 166//85 217//85
f 166//86 168//86 218//86
f 168//87 170//87 219//87
f 170//88 172//88 220//88
f 172//89 174//89 221//89
f 174//90 176//90 222//90
f 176//91 178//91 223//91
f 178//92 180//92 224//92
f 180//93 182//93 225//93
f 182//94 184//94 226//94
f 184//95 186//95 227//95
f 186//96 188//96 228//96
f 188//97 190//97 229//97
f 190//98 192//98 230//98
f 192//99 194//99 231//99
f 194//100 196//100 232//100
f 196//101 198//101 233//101
f 198//102 200//102 234//102
f 200//103 202//103 235//103
f 146//104 144//104 142//104
f 142//104 204//104 146//104
f 204//104 202//104 146//104
f 202//104 200//104 198//104
f 198//104 196//104 194//104
f 194//104 192//104 190//104
f 190//104 188//104 186//104
f 186//104 184//104 182//104
f 182//104 180//104 178//104
f 178//104 176//104 174//104
f 174//104 172//104 170//104
f 170//104 168//104 166//104
f 166//104 164//104 162//104
f 162//104 160//104 158//104
f 158//104 156//104 154//104
f 154//104 152//104 150//104
f 150//104 148//104 146//104
f 202//104 198//104 146//104
f 198//104 194//104 146//104
f 194//104 190//104 178//104
f 190//104 186//104 178//104
f 186//104 182//104 178//104
f 178//104 174//104 162//104
f 174//104 170//104 162//104
f 170//104 166//104 162//104
f 162//104 158//104 146//104
f 158//104 154//104 146//104
f 154//104 150//104 146//104
f 146//104 194//104 162//104
f 202//105 204//105 236//105
f 204//106 142//106 205//106
f 203//107 141//107 143//107
f 143//107 145//107 147//107
f 147//107 149//107 155//107
f 149//107 151//107 155//107
f 151//107 153//107 155//107
f 155//107 157//107 163//107
f 157//107 159//107 163//107
f 159//107 161//107 163//107
f 163//107 165//107 171//107
f 165//107 167//107 171//107
f 167//107 169//107 171//107
f 171//107 173//107 175//107
f 175//107 177//107 179//107
f 179//107 181//107 187//107
f 181//107 183//107 187//107
f 183//107 185//107 187//107
f 187//107 189//107 191//107
f 191//107 193//107 195//107
f 195//107 197//107 203//107
f 197//107 199//107 203//107
f 199//107 201//107 203//107
f 203//107 143//107 147//107
f 171//107 175//107 179//107
f 187//107 191//107 203//107
f 191//107 195//107 203//107
f 203//107 147//107 155//107
f 155//107 163//107 171//107
f 171//107 179//107 187//107
f 203//107 155//107 171//107
f 141//108 268//108 237//108
f 237//109 238//109 145//109
f 238//110 239//110 147//110
f 239//111 240//111 149//111
f 240//112 241//112 151//112
f 241//113 242//113 153//113
f 242//114 243//114 155//114
f 243//115 244//115 157//115
f 244//116 245//116 159//116
f 245//117 246//117 161//117
f 246//118 247//118 163//118
f 247//119 248//119 165//119
f 248//120 249//120 167//120
f 249//121 250//121 169//121
f 250//122 251//122 171//122
f 251//123 252//123 173//123
f 252//124 253//124 175//124
f 175//125 253//125 254//125
f 177//126 254//126 255//126
f 179//127 255//127 256//127
f 181//128 256//128 257//128
f 183//129 257//129 258//129
f 185//130 258//130 259//130
f 187//131 259//131 260//131
f 189//132 260//132 261//132
f 191//133 261//133 262//133
f 193//134 262//134 263//134
f 195//135 263//135 264//135
f 197//136 264//136 265//136
f 199//137 265//137 266//137
f 201//138 266//138 267//138
f 203//139 267//139 268//139
